# Blender v2.74 (sub 0) OBJ File: ''
# www.blender.org
o Cone
v 0.000000 0.953508 -1.000000
v 0.195090 0.953508 -0.980785
v 0.382683 0.953508 -0.923880
v 0.555570 0.953508 -0.831470
v 0.707107 0.953508 -0.707107
v 0.831470 0.953508 -0.555570
v 0.923880 0.953508 -0.382683
v 0.980785 0.953508 -0.195090
v 1.000000 0.953508 -0.000000
v 0.000000 2.953508 0.000000
v 0.980785 0.953508 0.195090
v 0.923880 0.953508 0.382683
v 0.831470 0.953508 0.555570
v 0.707107 0.953508 0.707107
v 0.555570 0.953508 0.831470
v 0.382683 0.953508 0.923880
v 0.195090 0.953508 0.980785
v -0.000000 0.953508 1.000000
v -0.195091 0.953508 0.980785
v -0.382684 0.953508 0.923879
v -0.555571 0.953508 0.831469
v -0.707107 0.953508 0.707106
v -0.831470 0.953508 0.555570
v -0.923880 0.953508 0.382683
v -0.980785 0.953508 0.195089
v -1.000000 0.953508 -0.000001
v -0.980785 0.953508 -0.195091
v -0.923879 0.953508 -0.382684
v -0.831469 0.953508 -0.555571
v -0.707106 0.953508 -0.707108
v -0.555569 0.953508 -0.831470
v -0.382682 0.953508 -0.923880
v -0.195089 0.953508 -0.980786
vn -0.259900 0.445500 -0.856700
vn 0.087800 0.445500 -0.891000
vn -0.422000 0.445500 -0.789600
vn -0.568000 0.445500 -0.692100
vn -0.692100 0.445500 -0.568000
vn -0.789600 0.445500 -0.422000
vn -0.856700 0.445500 -0.259900
vn -0.891000 0.445500 -0.087800
vn -0.891000 0.445500 0.087800
vn -0.856700 0.445500 0.259900
vn -0.789600 0.445500 0.422000
vn -0.692100 0.445500 0.568000
vn -0.568000 0.445500 0.692100
vn -0.422000 0.445500 0.789600
vn -0.259900 0.445500 0.856700
vn -0.087800 0.445500 0.891000
vn 0.087800 0.445500 0.891000
vn 0.259900 0.445500 0.856700
vn 0.422000 0.445500 0.789600
vn 0.568000 0.445500 0.692100
vn 0.692100 0.445500 0.568000
vn 0.789600 0.445500 0.422000
vn 0.856700 0.445500 0.259900
vn 0.891000 0.445500 0.087800
vn 0.891000 0.445500 -0.087800
vn 0.856700 0.445500 -0.259900
vn 0.789600 0.445500 -0.422000
vn 0.692100 0.445500 -0.568000
vn 0.568000 0.445500 -0.692100
vn 0.422000 0.445500 -0.789600
vn -0.087800 0.445500 -0.891000
vn 0.259900 0.445500 -0.856700
vn 0.000000 -1.000000 0.000000
s off
f 32//1 10//1 33//1
f 1//2 10//2 2//2
f 31//3 10//3 32//3
f 30//4 10//4 31//4
f 29//5 10//5 30//5
f 28//6 10//6 29//6
f 27//7 10//7 28//7
f 26//8 10//8 27//8
f 25//9 10//9 26//9
f 24//10 10//10 25//10
f 23//11 10//11 24//11
f 22//12 10//12 23//12
f 21//13 10//13 22//13
f 20//14 10//14 21//14
f 19//15 10//15 20//15
f 18//16 10//16 19//16
f 17//17 10//17 18//17
f 16//18 10//18 17//18
f 15//19 10//19 16//19
f 14//20 10//20 15//20
f 13//21 10//21 14//21
f 12//22 10//22 13//22
f 11//23 10//23 12//23
f 9//24 10//24 11//24
f 8//25 10//25 9//25
f 7//26 10//26 8//26
f 6//27 10//27 7//27
f 5//28 10//28 6//28
f 4//29 10//29 5//29
f 3//30 10//30 4//30
f 33//31 10//31 1//31
f 2//32 10//32 3//32
f 1//33 9//33 18//33
f 30//33 33//33 1//33
f 30//33 31//33 32//33
f 28//33 29//33 30//33
f 30//33 27//33 28//33
f 22//33 25//33 26//33
f 22//33 23//33 24//33
f 20//33 21//33 22//33
f 18//33 19//33 20//33
f 14//33 17//33 18//33
f 14//33 15//33 16//33
f 12//33 13//33 14//33
f 9//33 11//33 12//33
f 5//33 8//33 9//33
f 5//33 6//33 7//33
f 3//33 4//33 5//33
f 1//33 2//33 3//33
f 30//33 32//33 33//33
f 26//33 27//33 30//33
f 22//33 24//33 25//33
f 18//33 20//33 22//33
f 14//33 16//33 17//33
f 18//33 12//33 14//33
f 5//33 7//33 8//33
f 1//33 3//33 5//33
f 18//33 30//33 1//33
f 18//33 22//33 26//33
f 9//33 12//33 18//33
f 1//33 5//33 9//33
f 18//33 26//33 30//33
o Cube
v 1.022830 -1.000000 -1.000000
v 1.022830 -1.000000 1.000000
v -0.977170 -1.000000 1.000000
v -0.977170 -1.000000 -1.000000
v 1.022830 1.000000 -0.999999
v 1.022829 1.000000 1.000001
v -0.977171 1.000000 1.000000
v -0.977170 1.000000 -1.000000
vt 0.999800 0.333134
vt 0.999800 0.000200
vt 0.666866 0.000200
vt 0.000200 0.000200
vt 0.333134 0.000200
vt 0.333134 0.333134
vt 0.333533 0.000200
vt 0.666467 0.000200
vt 0.666467 0.333134
vt 0.000200 0.666866
vt 0.333134 0.666866
vt 0.333134 0.999800
vt 0.333134 0.333533
vt 0.000200 0.333533
vt 0.000200 0.666467
vt 0.666467 0.666467
vt 0.666467 0.333533
vt 0.333533 0.333533
vt 0.666866 0.333133
vt 0.000200 0.333134
vt 0.333533 0.333134
vt 0.000200 0.999800
vt 0.333134 0.666467
vt 0.333533 0.666467
vn 0.000000 -1.000000 0.000000
vn 0.000000 1.000000 0.000000
vn 1.000000 0.000000 0.000000
vn -0.000000 0.000000 1.000000
vn -1.000000 -0.000000 -0.000000
vn 0.000000 0.000000 -1.000000
s off
f 35/1/34 36/2/34 37/3/34
f 41/4/35 40/5/35 39/6/35
f 38/7/36 39/8/36 35/9/36
f 39/10/37 40/11/37 36/12/37
f 36/13/38 40/14/38 41/15/38
f 34/16/39 37/17/39 41/18/39
f 34/19/34 35/1/34 37/3/34
f 38/20/35 41/4/35 39/6/35
f 34/21/36 38/7/36 35/9/36
f 35/22/37 39/10/37 36/12/37
f 37/23/38 36/13/38 41/15/38
f 38/24/39 34/16/39 41/18/39
