# Blender v2.74 (sub 0) OBJ File: 'cube1x2.blend'
# www.blender.org
v -1.000000 -1.000000 1.000000
v -1.000000 1.000000 1.000000
v -1.000000 -1.000000 -1.000000
v -1.000000 1.000000 -1.000000
v 3.000000 1.000000 -1.000000
v 3.000000 -1.000000 -1.000000
v 3.000000 1.000000 1.000000
v 3.000000 -1.000000 1.000000
vt 1.000000 0.000000
vt 1.000000 1.000000
vt 0.000000 1.000000
vt 0.000000 0.000000
vn -1.000000 0.000000 0.000000
vn 0.000000 -1.000000 0.000000
vn 0.000000 1.000000 0.000000
vn 0.000000 0.000000 -1.000000
vn 1.000000 0.000000 0.000000
vn 0.000000 0.000000 1.000000
s off
f 4/1/1 3/2/1 1/3/1
f 6/1/2 8/2/2 1/3/2
f 7/1/3 5/2/3 4/3/3
f 4/1/4 5/2/4 6/3/4
f 7/1/5 8/2/5 6/3/5
f 8/1/6 7/2/6 2/3/6
f 2/4/1 4/1/1 1/3/1
f 3/4/2 6/1/2 1/3/2
f 2/4/3 7/1/3 4/3/3
f 3/4/4 4/1/4 6/3/4
f 5/4/5 7/1/5 6/3/5
f 1/4/6 8/1/6 2/3/6
